%FSLAX34Y34*%
%MOMM*%
%LNCOPPER_TOP*%
G71*
G01*
%ADD10C, 2.00*%
%ADD11C, 0.33*%
%ADD12C, 4.00*%
%ADD13C, 0.10*%
%ADD14C, 2.20*%
%LPD*%
G36*
X75950Y-396646D02*
X97950Y-396646D01*
X97950Y-418646D01*
X75950Y-418646D01*
X75950Y-396646D01*
G37*
G36*
X75950Y-371246D02*
X97950Y-371246D01*
X97950Y-393246D01*
X75950Y-393246D01*
X75950Y-371246D01*
G37*
G36*
X75950Y-345846D02*
X97950Y-345846D01*
X97950Y-367846D01*
X75950Y-367846D01*
X75950Y-345846D01*
G37*
G36*
X75950Y-320446D02*
X97950Y-320446D01*
X97950Y-342446D01*
X75950Y-342446D01*
X75950Y-320446D01*
G37*
G36*
X107200Y-134250D02*
X129200Y-134250D01*
X129200Y-156250D01*
X107200Y-156250D01*
X107200Y-134250D01*
G37*
G36*
X143700Y-132750D02*
X165700Y-132750D01*
X165700Y-154750D01*
X143700Y-154750D01*
X143700Y-132750D01*
G37*
G36*
X143700Y-158150D02*
X165700Y-158150D01*
X165700Y-180150D01*
X143700Y-180150D01*
X143700Y-158150D01*
G37*
G36*
X143700Y-183550D02*
X165700Y-183550D01*
X165700Y-205550D01*
X143700Y-205550D01*
X143700Y-183550D01*
G37*
G36*
X107200Y-210450D02*
X129200Y-210450D01*
X129200Y-232450D01*
X107200Y-232450D01*
X107200Y-210450D01*
G37*
G36*
X212100Y-139750D02*
X234100Y-139750D01*
X234100Y-161750D01*
X212100Y-161750D01*
X212100Y-139750D01*
G37*
G36*
X233699Y-90792D02*
X255699Y-90792D01*
X255699Y-112792D01*
X233699Y-112792D01*
X233699Y-90792D01*
G37*
G36*
X283699Y-90792D02*
X305699Y-90792D01*
X305699Y-112792D01*
X283699Y-112792D01*
X283699Y-90792D01*
G37*
G36*
X288300Y-139750D02*
X310300Y-139750D01*
X310300Y-161750D01*
X288300Y-161750D01*
X288300Y-139750D01*
G37*
G36*
X259200Y-183250D02*
X281200Y-183250D01*
X281200Y-205250D01*
X259200Y-205250D01*
X259200Y-183250D01*
G37*
G36*
X259200Y-208250D02*
X281200Y-208250D01*
X281200Y-230250D01*
X259200Y-230250D01*
X259200Y-208250D01*
G37*
G36*
X349200Y-208250D02*
X371200Y-208250D01*
X371200Y-230250D01*
X349200Y-230250D01*
X349200Y-208250D01*
G37*
G36*
X349200Y-183250D02*
X371200Y-183250D01*
X371200Y-205250D01*
X349200Y-205250D01*
X349200Y-183250D01*
G37*
G36*
X351500Y-154950D02*
X373500Y-154950D01*
X373500Y-176950D01*
X351500Y-176950D01*
X351500Y-154950D01*
G37*
G36*
X351500Y-129550D02*
X373500Y-129550D01*
X373500Y-151550D01*
X351500Y-151550D01*
X351500Y-129550D01*
G37*
G36*
X350500Y-88950D02*
X372500Y-88950D01*
X372500Y-110950D01*
X350500Y-110950D01*
X350500Y-88950D01*
G37*
G36*
X350500Y-63550D02*
X372500Y-63550D01*
X372500Y-85550D01*
X350500Y-85550D01*
X350500Y-63550D01*
G37*
G36*
X349950Y-469646D02*
X371950Y-469646D01*
X371950Y-491646D01*
X349950Y-491646D01*
X349950Y-469646D01*
G37*
G36*
X349950Y-444246D02*
X371950Y-444246D01*
X371950Y-466246D01*
X349950Y-466246D01*
X349950Y-444246D01*
G37*
G36*
X349950Y-418846D02*
X371950Y-418846D01*
X371950Y-440846D01*
X349950Y-440846D01*
X349950Y-418846D01*
G37*
G36*
X349950Y-393446D02*
X371950Y-393446D01*
X371950Y-415446D01*
X349950Y-415446D01*
X349950Y-393446D01*
G37*
G36*
X194695Y-191741D02*
X201130Y-185306D01*
X210260Y-185306D01*
X216695Y-191741D01*
X216695Y-200871D01*
X210260Y-207306D01*
X201130Y-207306D01*
X194695Y-200871D01*
X194695Y-191741D01*
G37*
G36*
X194695Y-217197D02*
X201130Y-210762D01*
X210260Y-210762D01*
X216695Y-217197D01*
X216695Y-226327D01*
X210260Y-232762D01*
X201130Y-232762D01*
X194695Y-226327D01*
X194695Y-217197D01*
G37*
G54D10*
X155000Y-107000D02*
X89000Y-107000D01*
X82000Y-114000D01*
X82000Y-247000D01*
X95000Y-260000D01*
X245000Y-260000D01*
X260000Y-275000D01*
X260000Y-300050D01*
X260700Y-300750D01*
G36*
X144000Y-96000D02*
X166000Y-96000D01*
X166000Y-118000D01*
X144000Y-118000D01*
X144000Y-96000D01*
G37*
G36*
X249700Y-289750D02*
X271700Y-289750D01*
X271700Y-311750D01*
X249700Y-311750D01*
X249700Y-289750D01*
G37*
G36*
X338800Y-246000D02*
X360800Y-246000D01*
X360800Y-268000D01*
X338800Y-268000D01*
X338800Y-246000D01*
G37*
G36*
X378700Y-275950D02*
X400700Y-275950D01*
X400700Y-297950D01*
X378700Y-297950D01*
X378700Y-275950D01*
G37*
G36*
X285494Y-313378D02*
X307494Y-313378D01*
X307494Y-335378D01*
X285494Y-335378D01*
X285494Y-313378D01*
G37*
G36*
X285494Y-364178D02*
X307494Y-364178D01*
X307494Y-386178D01*
X285494Y-386178D01*
X285494Y-364178D01*
G37*
G36*
X288000Y-246000D02*
X310000Y-246000D01*
X310000Y-268000D01*
X288000Y-268000D01*
X288000Y-246000D01*
G37*
G36*
X343981Y-282569D02*
X350416Y-276134D01*
X359546Y-276134D01*
X365981Y-282569D01*
X365981Y-291699D01*
X359546Y-298134D01*
X350416Y-298134D01*
X343981Y-291699D01*
X343981Y-282569D01*
G37*
G36*
X343981Y-319969D02*
X350416Y-313534D01*
X359546Y-313534D01*
X365981Y-319969D01*
X365981Y-329099D01*
X359546Y-335534D01*
X350416Y-335534D01*
X343981Y-329099D01*
X343981Y-319969D01*
G37*
G36*
X319281Y-301269D02*
X325716Y-294834D01*
X334846Y-294834D01*
X341281Y-301269D01*
X341281Y-310399D01*
X334846Y-316834D01*
X325716Y-316834D01*
X319281Y-310399D01*
X319281Y-301269D01*
G37*
G36*
X378700Y-199750D02*
X400700Y-199750D01*
X400700Y-221750D01*
X378700Y-221750D01*
X378700Y-199750D01*
G37*
G54D10*
X188000Y-133000D02*
X188000Y-82000D01*
X199000Y-71000D01*
X310000Y-71000D01*
X334000Y-95000D01*
X334000Y-156000D01*
X330000Y-160000D01*
G36*
X177000Y-122000D02*
X199000Y-122000D01*
X199000Y-144000D01*
X177000Y-144000D01*
X177000Y-122000D01*
G37*
G36*
X319000Y-149000D02*
X341000Y-149000D01*
X341000Y-171000D01*
X319000Y-171000D01*
X319000Y-149000D01*
G37*
G54D10*
X80000Y-290000D02*
X60000Y-290000D01*
X48000Y-302000D01*
X48000Y-648000D01*
X55000Y-655000D01*
X113000Y-655000D01*
X114000Y-654000D01*
G54D10*
X47000Y-706000D02*
X113000Y-706000D01*
G54D10*
X193000Y-535000D02*
X280000Y-535000D01*
G54D11*
X100000Y-450000D02*
X73333Y-450000D01*
X100000Y-466000D01*
X73333Y-466000D01*
G54D11*
X100000Y-473333D02*
X73333Y-473333D01*
G54D11*
X88333Y-488399D02*
X88333Y-504399D01*
G54D11*
X81667Y-496399D02*
X95000Y-496399D01*
G54D11*
X100000Y-511732D02*
X73333Y-511732D01*
X73333Y-521732D01*
X75000Y-525732D01*
X78333Y-527732D01*
X81667Y-527732D01*
X85000Y-525732D01*
X86667Y-521732D01*
X88333Y-525732D01*
X91667Y-527732D01*
X95000Y-527732D01*
X98333Y-525732D01*
X100000Y-521732D01*
X100000Y-511732D01*
G54D11*
X86667Y-511732D02*
X86667Y-521732D01*
G54D11*
X86667Y-543065D02*
X86667Y-551065D01*
X95000Y-551065D01*
X98333Y-549065D01*
X100000Y-545065D01*
X100000Y-541065D01*
X98333Y-537065D01*
X95000Y-535065D01*
X78333Y-535065D01*
X75000Y-537065D01*
X73333Y-541065D01*
X73333Y-545065D01*
X75000Y-549065D01*
X78333Y-551065D01*
G54D11*
X86667Y-566398D02*
X90000Y-572398D01*
X93333Y-574398D01*
X100000Y-574398D01*
G54D11*
X100000Y-558398D02*
X73333Y-558398D01*
X73333Y-568398D01*
X75000Y-572398D01*
X78333Y-574398D01*
X81667Y-574398D01*
X85000Y-572398D01*
X86667Y-568398D01*
X86667Y-558398D01*
G54D11*
X60000Y-80000D02*
X33333Y-80000D01*
X50000Y-90000D01*
X33333Y-100000D01*
X60000Y-100000D01*
G54D11*
X46667Y-107333D02*
X45000Y-111333D01*
X45000Y-116133D01*
X48333Y-119333D01*
X60000Y-119333D01*
G54D11*
X55000Y-119333D02*
X51667Y-117333D01*
X51000Y-113333D01*
X51667Y-109333D01*
X55000Y-107333D01*
X58333Y-108133D01*
X60000Y-111333D01*
X60000Y-113333D01*
X60000Y-114133D01*
X58333Y-117333D01*
X55000Y-119333D01*
G54D11*
X60000Y-126666D02*
X45000Y-126666D01*
G54D11*
X48333Y-126666D02*
X45000Y-130666D01*
X45000Y-134666D01*
G54D11*
X60000Y-141999D02*
X33333Y-157999D01*
G54D11*
X60000Y-165332D02*
X33333Y-175332D01*
X60000Y-185332D01*
G54D11*
X50000Y-169332D02*
X50000Y-181332D01*
G54D11*
X45000Y-192665D02*
X45000Y-204665D01*
X60000Y-192665D01*
X60000Y-204665D01*
G54D11*
X60000Y-211998D02*
X33333Y-227998D01*
G54D11*
X60000Y-235331D02*
X33333Y-235331D01*
X33333Y-245331D01*
X35000Y-249331D01*
X38333Y-251331D01*
X41667Y-251331D01*
X45000Y-249331D01*
X46667Y-245331D01*
X46667Y-235331D01*
G54D11*
X33333Y-262664D02*
X58333Y-262664D01*
X60000Y-264664D01*
X59333Y-266664D01*
G54D11*
X45000Y-258664D02*
X45000Y-266664D01*
G54D11*
X330000Y-33333D02*
X320000Y-23333D01*
X320000Y-50000D01*
G54D11*
X296667Y-50000D02*
X312667Y-50000D01*
X312667Y-48333D01*
X310667Y-45000D01*
X298667Y-35000D01*
X296667Y-31667D01*
X296667Y-28333D01*
X298667Y-25000D01*
X302667Y-23333D01*
X306667Y-23333D01*
X310667Y-25000D01*
X312667Y-28333D01*
G54D11*
X289334Y-23333D02*
X279334Y-50000D01*
X269334Y-23333D01*
G54D11*
X246535Y-38333D02*
X230535Y-38333D01*
X50000Y-40000D02*
G54D12*
D03*
X410000Y-40000D02*
G54D12*
D03*
X410000Y-790000D02*
G54D12*
D03*
X50000Y-790000D02*
G54D12*
D03*
G54D13*
X10000Y-10000D02*
X440000Y-10000D01*
X440000Y-820000D01*
X10000Y-820000D01*
X10000Y-10000D01*
X10000Y-10000D02*
G54D14*
D03*
X440000Y-10000D02*
G54D14*
D03*
X440000Y-820000D02*
G54D14*
D03*
X10000Y-820000D02*
G54D14*
D03*
G54D11*
X320000Y-618000D02*
X293333Y-618000D01*
G54D11*
X293333Y-610000D02*
X293333Y-626000D01*
G54D11*
X293333Y-633333D02*
X315000Y-633333D01*
X318333Y-635333D01*
X320000Y-639333D01*
X320000Y-643333D01*
X318333Y-647333D01*
X315000Y-649333D01*
X293333Y-649333D01*
G54D11*
X298333Y-672666D02*
X315000Y-672666D01*
X318333Y-670666D01*
X320000Y-666666D01*
X320000Y-662666D01*
X318333Y-658666D01*
X315000Y-656666D01*
X298333Y-656666D01*
X295000Y-658666D01*
X293333Y-662666D01*
X293333Y-666666D01*
X295000Y-670666D01*
X298333Y-672666D01*
G54D11*
X308333Y-687732D02*
X308333Y-703732D01*
G54D11*
X301667Y-695732D02*
X315000Y-695732D01*
G54D11*
X320000Y-711065D02*
X293333Y-711065D01*
X293333Y-721065D01*
X295000Y-725065D01*
X298333Y-727065D01*
X301667Y-727065D01*
X305000Y-725065D01*
X306667Y-721065D01*
X308333Y-725065D01*
X311667Y-727065D01*
X315000Y-727065D01*
X318333Y-725065D01*
X320000Y-721065D01*
X320000Y-711065D01*
G54D11*
X306667Y-711065D02*
X306667Y-721065D01*
G54D11*
X306667Y-742398D02*
X306667Y-750398D01*
X315000Y-750398D01*
X318333Y-748398D01*
X320000Y-744398D01*
X320000Y-740398D01*
X318333Y-736398D01*
X315000Y-734398D01*
X298333Y-734398D01*
X295000Y-736398D01*
X293333Y-740398D01*
X293333Y-744398D01*
X295000Y-748398D01*
X298333Y-750398D01*
G54D11*
X306667Y-765731D02*
X310000Y-771731D01*
X313333Y-773731D01*
X320000Y-773731D01*
G54D11*
X320000Y-757731D02*
X293333Y-757731D01*
X293333Y-767731D01*
X295000Y-771731D01*
X298333Y-773731D01*
X301667Y-773731D01*
X305000Y-771731D01*
X306667Y-767731D01*
X306667Y-757731D01*
G54D11*
X320000Y-408000D02*
X293333Y-408000D01*
G54D11*
X293333Y-400000D02*
X293333Y-416000D01*
G54D11*
X293333Y-423333D02*
X315000Y-423333D01*
X318333Y-425333D01*
X320000Y-429333D01*
X320000Y-433333D01*
X318333Y-437333D01*
X315000Y-439333D01*
X293333Y-439333D01*
G54D11*
X298333Y-462666D02*
X315000Y-462666D01*
X318333Y-460666D01*
X320000Y-456666D01*
X320000Y-452666D01*
X318333Y-448666D01*
X315000Y-446666D01*
X298333Y-446666D01*
X295000Y-448666D01*
X293333Y-452666D01*
X293333Y-456666D01*
X295000Y-460666D01*
X298333Y-462666D01*
G54D11*
X308333Y-477732D02*
X308333Y-493732D01*
G54D11*
X301667Y-485732D02*
X315000Y-485732D01*
G54D11*
X320000Y-501065D02*
X293333Y-501065D01*
X293333Y-511065D01*
X295000Y-515065D01*
X298333Y-517065D01*
X301667Y-517065D01*
X305000Y-515065D01*
X306667Y-511065D01*
X308333Y-515065D01*
X311667Y-517065D01*
X315000Y-517065D01*
X318333Y-515065D01*
X320000Y-511065D01*
X320000Y-501065D01*
G54D11*
X306667Y-501065D02*
X306667Y-511065D01*
G54D11*
X306667Y-532398D02*
X306667Y-540398D01*
X315000Y-540398D01*
X318333Y-538398D01*
X320000Y-534398D01*
X320000Y-530398D01*
X318333Y-526398D01*
X315000Y-524398D01*
X298333Y-524398D01*
X295000Y-526398D01*
X293333Y-530398D01*
X293333Y-534398D01*
X295000Y-538398D01*
X298333Y-540398D01*
G54D11*
X306667Y-555731D02*
X310000Y-561731D01*
X313333Y-563731D01*
X320000Y-563731D01*
G54D11*
X320000Y-547731D02*
X293333Y-547731D01*
X293333Y-557731D01*
X295000Y-561731D01*
X298333Y-563731D01*
X301667Y-563731D01*
X305000Y-561731D01*
X306667Y-557731D01*
X306667Y-547731D01*
G36*
X131174Y-277723D02*
X153174Y-277723D01*
X153174Y-299723D01*
X131174Y-299723D01*
X131174Y-277723D01*
G37*
G36*
X131174Y-303123D02*
X153174Y-303123D01*
X153174Y-325123D01*
X131174Y-325123D01*
X131174Y-303123D01*
G37*
G36*
X131174Y-328123D02*
X153174Y-328123D01*
X153174Y-350123D01*
X131174Y-350123D01*
X131174Y-328123D01*
G37*
G36*
X131174Y-353523D02*
X153174Y-353523D01*
X153174Y-375523D01*
X131174Y-375523D01*
X131174Y-353523D01*
G37*
G36*
X130251Y-378000D02*
X152251Y-378000D01*
X152251Y-400000D01*
X130251Y-400000D01*
X130251Y-378000D01*
G37*
G36*
X131174Y-404323D02*
X153174Y-404323D01*
X153174Y-426323D01*
X131174Y-426323D01*
X131174Y-404323D01*
G37*
G36*
X131174Y-429723D02*
X153174Y-429723D01*
X153174Y-451723D01*
X131174Y-451723D01*
X131174Y-429723D01*
G37*
G36*
X207374Y-303123D02*
X229374Y-303123D01*
X229374Y-325123D01*
X207374Y-325123D01*
X207374Y-303123D01*
G37*
G36*
X207374Y-277723D02*
X229374Y-277723D01*
X229374Y-299723D01*
X207374Y-299723D01*
X207374Y-277723D01*
G37*
G36*
X207374Y-328123D02*
X229374Y-328123D01*
X229374Y-350123D01*
X207374Y-350123D01*
X207374Y-328123D01*
G37*
G36*
X207374Y-353523D02*
X229374Y-353523D01*
X229374Y-375523D01*
X207374Y-375523D01*
X207374Y-353523D01*
G37*
G36*
X207374Y-378923D02*
X229374Y-378923D01*
X229374Y-400923D01*
X207374Y-400923D01*
X207374Y-378923D01*
G37*
G36*
X207374Y-404323D02*
X229374Y-404323D01*
X229374Y-426323D01*
X207374Y-426323D01*
X207374Y-404323D01*
G37*
G36*
X207374Y-429723D02*
X229374Y-429723D01*
X229374Y-451723D01*
X207374Y-451723D01*
X207374Y-429723D01*
G37*
G36*
X207374Y-455123D02*
X229374Y-455123D01*
X229374Y-477123D01*
X207374Y-477123D01*
X207374Y-455123D01*
G37*
G36*
X207374Y-480523D02*
X229374Y-480523D01*
X229374Y-502523D01*
X207374Y-502523D01*
X207374Y-480523D01*
G37*
G36*
X207374Y-568723D02*
X229374Y-568723D01*
X229374Y-590723D01*
X207374Y-590723D01*
X207374Y-568723D01*
G37*
G36*
X131174Y-568723D02*
X153174Y-568723D01*
X153174Y-590723D01*
X131174Y-590723D01*
X131174Y-568723D01*
G37*
G36*
X348950Y-651446D02*
X370950Y-651446D01*
X370950Y-673446D01*
X348950Y-673446D01*
X348950Y-651446D01*
G37*
G36*
X348950Y-676846D02*
X370950Y-676846D01*
X370950Y-698846D01*
X348950Y-698846D01*
X348950Y-676846D01*
G37*
G36*
X348950Y-702246D02*
X370950Y-702246D01*
X370950Y-724246D01*
X348950Y-724246D01*
X348950Y-702246D01*
G37*
G36*
X348950Y-727646D02*
X370950Y-727646D01*
X370950Y-749646D01*
X348950Y-749646D01*
X348950Y-727646D01*
G37*
G36*
X207374Y-771523D02*
X229374Y-771523D01*
X229374Y-793523D01*
X207374Y-793523D01*
X207374Y-771523D01*
G37*
G36*
X207374Y-746123D02*
X229374Y-746123D01*
X229374Y-768123D01*
X207374Y-768123D01*
X207374Y-746123D01*
G37*
G36*
X207374Y-720723D02*
X229374Y-720723D01*
X229374Y-742723D01*
X207374Y-742723D01*
X207374Y-720723D01*
G37*
G36*
X207374Y-695323D02*
X229374Y-695323D01*
X229374Y-717323D01*
X207374Y-717323D01*
X207374Y-695323D01*
G37*
G36*
X207374Y-669923D02*
X229374Y-669923D01*
X229374Y-691923D01*
X207374Y-691923D01*
X207374Y-669923D01*
G37*
G36*
X207374Y-644523D02*
X229374Y-644523D01*
X229374Y-666523D01*
X207374Y-666523D01*
X207374Y-644523D01*
G37*
G36*
X207374Y-619123D02*
X229374Y-619123D01*
X229374Y-641123D01*
X207374Y-641123D01*
X207374Y-619123D01*
G37*
G36*
X207374Y-594123D02*
X229374Y-594123D01*
X229374Y-616123D01*
X207374Y-616123D01*
X207374Y-594123D01*
G37*
G36*
X131174Y-594123D02*
X153174Y-594123D01*
X153174Y-616123D01*
X131174Y-616123D01*
X131174Y-594123D01*
G37*
G36*
X131174Y-619123D02*
X153174Y-619123D01*
X153174Y-641123D01*
X131174Y-641123D01*
X131174Y-619123D01*
G37*
G36*
X131174Y-644523D02*
X153174Y-644523D01*
X153174Y-666523D01*
X131174Y-666523D01*
X131174Y-644523D01*
G37*
G36*
X131174Y-669923D02*
X153174Y-669923D01*
X153174Y-691923D01*
X131174Y-691923D01*
X131174Y-669923D01*
G37*
G36*
X131174Y-695323D02*
X153174Y-695323D01*
X153174Y-717323D01*
X131174Y-717323D01*
X131174Y-695323D01*
G37*
G36*
X131174Y-720723D02*
X153174Y-720723D01*
X153174Y-742723D01*
X131174Y-742723D01*
X131174Y-720723D01*
G37*
G36*
X131174Y-746123D02*
X153174Y-746123D01*
X153174Y-768123D01*
X131174Y-768123D01*
X131174Y-746123D01*
G37*
G36*
X131174Y-771523D02*
X153174Y-771523D01*
X153174Y-793523D01*
X131174Y-793523D01*
X131174Y-771523D01*
G37*
G36*
X102000Y-695000D02*
X124000Y-695000D01*
X124000Y-717000D01*
X102000Y-717000D01*
X102000Y-695000D01*
G37*
G36*
X36000Y-695000D02*
X58000Y-695000D01*
X58000Y-717000D01*
X36000Y-717000D01*
X36000Y-695000D01*
G37*
G36*
X69000Y-279000D02*
X91000Y-279000D01*
X91000Y-301000D01*
X69000Y-301000D01*
X69000Y-279000D01*
G37*
G36*
X131174Y-455123D02*
X153174Y-455123D01*
X153174Y-477123D01*
X131174Y-477123D01*
X131174Y-455123D01*
G37*
G36*
X131174Y-480523D02*
X153174Y-480523D01*
X153174Y-502523D01*
X131174Y-502523D01*
X131174Y-480523D01*
G37*
G36*
X102000Y-644000D02*
X124000Y-644000D01*
X124000Y-666000D01*
X102000Y-666000D01*
X102000Y-644000D01*
G37*
G36*
X269000Y-524000D02*
X291000Y-524000D01*
X291000Y-546000D01*
X269000Y-546000D01*
X269000Y-524000D01*
G37*
G36*
X182000Y-524000D02*
X204000Y-524000D01*
X204000Y-546000D01*
X182000Y-546000D01*
X182000Y-524000D01*
G37*
M02*
