; Drill file
; Format: 2.4 (00.0000)
M48
INCH
T01C0.0276
T02C0.0315
%
G05
G90
T01
X010260Y-011840
X006100Y-004210
T02
X000390Y-032280
X001970Y-031100
X001850Y-027800
X004450Y-027800
X005600Y-027810
X005600Y-028810
X005600Y-029810
X005600Y-030810
X008600Y-030810
X008600Y-029810
X008600Y-028810
X008600Y-027810
X008600Y-026810
X008600Y-025810
X008600Y-024810
X008600Y-023820
X008600Y-022820
X007600Y-021060
X008600Y-019350
X008600Y-018350
X008600Y-017350
X008600Y-016350
X008600Y-015350
X008600Y-014350
X008600Y-013350
X008600Y-012370
X008600Y-011370
X008100Y-008730
X008100Y-007730
X008780Y-005940
X007400Y-005240
X006090Y-005660
X006090Y-006660
X006090Y-007660
X004650Y-008720
X005600Y-011370
X005600Y-012370
X005600Y-013350
X005600Y-014350
X005600Y-015350
X005600Y-016350
X005600Y-017350
X005600Y-018350
X005600Y-019350
X005600Y-022820
X005600Y-023820
X005600Y-024810
X005600Y-025810
X005600Y-026810
X004450Y-025790
X011020Y-021060
X014210Y-018920
X014210Y-017920
X014210Y-016920
X014210Y-015920
X011670Y-014770
X011670Y-012770
X013000Y-012040
X013980Y-011300
X013770Y-010120
X014180Y-008630
X014180Y-007650
X014270Y-006530
X014270Y-005530
X012990Y-006300
X011780Y-005940
X011600Y-004010
X009630Y-004010
X010640Y-007650
X010640Y-008630
X011770Y-010120
X013980Y-012780
X015340Y-011300
X015340Y-008300
X014230Y-003940
X014230Y-002940
X016140Y-001570
X017320Y-000390
X004650Y-005720
X001970Y-001570
X000390Y-000390
X003150Y-011420
X003420Y-013050
X003420Y-014050
X003420Y-015050
X003420Y-016050
X014170Y-026080
X014170Y-027080
X014170Y-028080
X014170Y-029080
X016140Y-031100
X017320Y-032280
M30
